<svg width="1000" height="1000" viewBox="0 0 1000 1000" xmlns="http://www.w3.org/2000/svg"><defs/><path d="M 0 0 L 1000 0 L 1000 1000 L 0 1000 Z"/><path fill="#ffffff" transform="matrix(0.7001866164304121 0 0 0.7001866164304121 9.398504220977504 -14.476866391470919)" d="M 269.5578984152 721.34932380597 L 272.2578984152 764.74932380597 C 272.3578984152 766.14932380597 273.5578984152 766.94932380597 274.8578984152 766.54932380597 L 529.5578984152 689.84932380597 C 529.6578984152 688.64932380597 529.6578984152 687.54932380597 529.7578984152 686.24932380597 L 269.5578984152 721.34932380597 Z"/><path fill="#ffffff" transform="matrix(0.7001866164304121 0 0 0.7001866164304121 9.398504220977504 -14.476866391470919)" d="M 291.6578984152 610.54932380597 C 290.2578984152 610.24932380597 288.4578984152 610.94932380597 287.5578984152 612.04932380597 L 256.8578984152 651.24932380597 L 508.3578984152 665.34932380597 L 237.3578984152 676.24932380597 L 201.2578984152 722.34932380597 C 200.3578984152 723.44932380597 200.8578984152 724.24932380597 202.2578984152 724.04932380597 L 529.9578984152 679.94932380597 C 529.9578984152 669.64932380597 527.6578984152 660.74932380597 523.4578984152 654.84932380597 L 291.6578984152 610.54932380597 Z"/><path fill="#777777" transform="matrix(0.7001866164304121 0 0 0.7001866164304121 9.398504220977504 -14.476866391470919)" d="M 554.5578984152 851.04932380597 L 583.9578984152 819.84932380597 L 577.6578984152 719.94932380597 L 577.5578984152 717.94932380597 L 551.6578984152 748.24932380597 Z"/><path fill="#777777" transform="matrix(0.043970396159124826 0.6987862431975513 -0.6987862431975513 0.043970396159124826 433.31738871275695 7.514524838713811)" d="M 712.67989531834 165.66630862404 L 814.77989531834 165.66630862404 L 814.77989531834 230.96630862404 L 712.67989531834 230.96630862404 Z"/><path fill="#777777" transform="matrix(-0.04395746371231936 -0.6987862431975513 0.6987862431975513 -0.04395746371231936 41.168211605597875 482.60927892011404)" d="M -172.77787349307 447.54266083902 L -70.67787349307 447.54266083902 L -70.67787349307 499.34266083902 L -172.77787349307 499.34266083902 Z"/><path fill="#777777" transform="matrix(0.7001866164304121 0 0 0.7001866164304121 9.398504220977504 -14.476866391470919)" d="M 508.4578984152 722.34932380597 L 490.7578984152 723.44932380597 C 487.8578984152 718.44932380597 485.5578984152 712.34932380597 483.8578984152 706.34932380597 L 478.2578984152 708.04932380597 C 481.4578984152 719.64932380597 487.1578984152 732.34932380597 496.0578984152 737.94932380597 L 499.7578984152 733.34932380597 L 508.4578984152 722.34932380597 Z"/><path fill="#777777" transform="matrix(0.7001866164304121 0 0 0.7001866164304121 9.398504220977504 -14.476866391470919)" d="M 520.1578984152 721.54932380597 L 511.4578984152 732.44932380597 C 513.2578984152 731.44932380597 514.9578984152 730.24932380597 516.4578984152 728.84932380597 C 518.5578984152 726.84932380597 520.4578984152 724.34932380597 522.0578984152 721.44932380597 L 520.1578984152 721.54932380597 Z"/><path fill="#777777" transform="matrix(0.7001866164304121 0 0 0.7001866164304121 9.398504220977504 -14.476866391470919)" d="M 494.2578984152 740.14932380597 C 487.7578984152 737.74932380597 482.6578984152 731.54932380597 478.8578984152 724.24932380597 L 449.0578984152 726.14932380597 L 419.6578984152 757.34932380597 L 485.3578984152 751.34932380597 L 494.2578984152 740.14932380597 Z"/><path fill="#777777" transform="matrix(0.7001866164304121 0 0 0.7001866164304121 9.398504220977504 -14.476866391470919)" d="M 599.6578984152 669.34932380597 L 537.1578984152 657.44932380597 C 535.5578984152 653.84932380597 533.4578984152 650.34932380597 530.5578984152 647.44932380597 C 525.5578984152 642.44932380597 519.0578984152 640.04932380597 511.2578984152 640.24932380597 C 505.9578984152 640.34932380597 500.6578984152 642.34932380597 495.4578984152 646.24932380597 C 495.2578984152 646.44932380597 495.0578984152 646.54932380597 494.8578984152 646.84932380597 L 503.0578984152 648.44932380597 C 505.8578984152 647.04932380597 508.6578984152 646.24932380597 511.3578984152 646.14932380597 C 517.4578984152 646.04932380597 522.5578984152 647.84932380597 526.4578984152 651.64932380597 C 532.2578984152 657.34932380597 535.4578984152 667.74932380597 535.3578984152 680.24932380597 C 535.1578984152 704.54932380597 530.7578984152 720.34932380597 521.9578984152 728.54932380597 C 518.5578984152 731.74932380597 514.5578984152 733.74932380597 509.8578984152 734.54932380597 L 504.8578984152 740.84932380597 L 497.3578984152 750.24932380597 L 548.8578984152 745.54932380597 L 577.5578984152 718.04932380597 L 574.8578984152 718.24932380597 L 534.2578984152 720.84932380597 C 538.1578984152 712.24932380597 540.3578984152 700.94932380597 540.9578984152 686.54932380597 L 550.6578984152 683.64932380597 L 540.9578984152 684.94932380597 C 540.9578984152 683.44932380597 541.0578984152 681.94932380597 541.0578984152 680.34932380597 C 541.0578984152 679.74932380597 541.0578984152 679.14932380597 541.0578984152 678.54932380597 L 599.5578984152 670.64932380597 C 601.5578984152 670.24932380597 601.5578984152 669.74932380597 599.6578984152 669.34932380597 Z"/><path id="text" fill="#ffffff" transform="matrix(0.6900347844173675 0 0 0.6900347844173675 329.71448128069176 34.13431992140203)" d="M 177.71097290484 613.1336173175 C 177.71097290484 606.3496173175 179.56697290484 601.1656173175 183.27897290484 597.5816173175 C 186.99097290484 593.9976173175 193.10297290484 592.2056173175 201.61497290484 592.2056173175 L 224.07897290484 592.2056173175 L 224.07897290484 602.7656173175 L 201.61497290484 602.7656173175 C 198.09497290484 602.7656173175 195.48697290484 603.5976173175 193.79097290484 605.2616173175 C 192.09497290484 606.9256173175 191.24697290484 609.5496173175 191.24697290484 613.1336173175 L 191.24697290484 622.4456173175 L 219.85497290484 622.4456173175 L 219.85497290484 633.0056173175 L 191.24697290484 633.0056173175 L 191.24697290484 659.4056173175 L 177.71097290484 659.4056173175 L 177.71097290484 613.1336173175 Z M 238.52697290484 654.0296173175 C 234.97497290484 650.4456173175 233.19897290484 645.2616173175 233.19897290484 638.4776173175 L 233.19897290484 592.2056173175 L 246.73497290484 592.2056173175 L 246.73497290484 638.4776173175 C 246.73497290484 641.9976173175 247.50297290484 644.6056173175 249.03897290484 646.3016173175 C 250.57497290484 647.9976173175 252.94297290484 648.8456173175 256.14297290484 648.8456173175 L 277.64697290484 648.8456173175 L 277.64697290484 659.4056173175 L 256.14297290484 659.4056173175 C 247.95097290484 659.4056173175 242.07897290484 657.6136173175 238.52697290484 654.0296173175 Z M 326.31897290484 643.7576173175 L 300.01497290484 643.7576173175 L 295.50297290484 659.4056173175 L 281.96697290484 659.4056173175 L 298.38297290484 605.8376173175 C 299.53497290484 601.9976173175 300.75097290484 599.0216173175 302.03097290484 596.9096173175 C 303.31097290484 594.7976173175 304.83097290484 593.2936173175 306.59097290484 592.3976173175 C 308.35097290484 591.5016173175 310.54297290484 591.0536173175 313.16697290484 591.0536173175 C 315.79097290484 591.0536173175 317.96697290484 591.5016173175 319.69497290484 592.3976173175 C 321.42297290484 593.2936173175 322.94297290484 594.7976173175 324.25497290484 596.9096173175 C 325.56697290484 599.0216173175 326.79897290484 601.9976173175 327.95097290484 605.8376173175 L 344.36697290484 659.4056173175 L 330.83097290484 659.4056173175 L 326.31897290484 643.7576173175 Z M 323.34297290484 633.6776173175 L 315.27897290484 606.0296173175 C 314.83097290484 604.3656173175 314.12697290484 603.5336173175 313.16697290484 603.5336173175 C 312.20697290484 603.5336173175 311.50297290484 604.3656173175 311.05497290484 606.0296173175 L 302.99097290484 633.6776173175 L 323.34297290484 633.6776173175 Z M 360.15897290484 659.0216173175 C 357.05497290484 657.9976173175 354.44697290484 656.5896173175 352.33497290484 654.7976173175 C 350.22297290484 653.0056173175 348.04697290484 650.6056173175 345.80697290484 647.5976173175 L 354.92697290484 640.0136173175 C 357.55097290484 643.6616173175 360.09497290484 646.2376173175 362.55897290484 647.7416173175 C 365.02297290484 649.2456173175 368.07897290484 649.9976173175 371.72697290484 649.9976173175 C 376.78297290484 649.9976173175 380.46297290484 649.2616173175 382.76697290484 647.7896173175 C 385.07097290484 646.3176173175 386.22297290484 643.9496173175 386.22297290484 640.6856173175 C 386.22297290484 639.0216173175 385.67897290484 637.6616173175 384.59097290484 636.6056173175 C 383.50297290484 635.5496173175 381.63097290484 634.5736173175 378.97497290484 633.6776173175 C 376.31897290484 632.7816173175 372.36697290484 631.7896173175 367.11897290484 630.7016173175 C 360.97497290484 629.4216173175 356.41497290484 627.1336173175 353.43897290484 623.8376173175 C 350.46297290484 620.5416173175 348.97497290484 616.1416173175 348.97497290484 610.6376173175 C 348.97497290484 606.6696173175 349.98297290484 603.2136173175 351.99897290484 600.2696173175 C 354.01497290484 597.3256173175 356.87897290484 595.0536173175 360.59097290484 593.4536173175 C 364.30297290484 591.8536173175 368.62297290484 591.0536173175 373.55097290484 591.0536173175 C 379.95097290484 591.0536173175 385.03897290484 591.9976173175 388.81497290484 593.8856173175 C 392.59097290484 595.7736173175 395.66297290484 598.5416173175 398.03097290484 602.1896173175 L 389.10297290484 609.4856173175 C 387.11897290484 607.5016173175 385.47097290484 605.9816173175 384.15897290484 604.9256173175 C 382.84697290484 603.8696173175 381.35897290484 603.0536173175 379.69497290484 602.4776173175 C 378.03097290484 601.9016173175 375.98297290484 601.6136173175 373.55097290484 601.6136173175 C 369.90297290484 601.6136173175 367.15097290484 602.4136173175 365.29497290484 604.0136173175 C 363.43897290484 605.6136173175 362.51097290484 607.9176173175 362.51097290484 610.9256173175 C 362.51097290484 613.7416173175 363.69497290484 615.8056173175 366.06297290484 617.1176173175 C 368.43097290484 618.4296173175 371.47097290484 619.5016173175 375.18297290484 620.3336173175 C 380.68697290484 621.4856173175 385.07097290484 622.6696173175 388.33497290484 623.8856173175 C 391.59897290484 625.1016173175 394.31897290484 627.0536173175 396.49497290484 629.7416173175 C 398.67097290484 632.4296173175 399.75897290484 636.1096173175 399.75897290484 640.7816173175 C 399.75897290484 647.4376173175 397.43897290484 652.3976173175 392.79897290484 655.6616173175 C 388.15897290484 658.9256173175 381.13497290484 660.5576173175 371.72697290484 660.5576173175 C 367.11897290484 660.5576173175 363.26297290484 660.0456173175 360.15897290484 659.0216173175 Z M 411.47097290484 592.2056173175 L 425.00697290484 592.2056173175 L 425.00697290484 620.4296173175 L 451.11897290484 620.4296173175 L 451.11897290484 592.2056173175 L 464.65497290484 592.2056173175 L 464.65497290484 659.4056173175 L 451.11897290484 659.4056173175 L 451.11897290484 630.9896173175 L 425.00697290484 630.9896173175 L 425.00697290484 659.4056173175 L 411.47097290484 659.4056173175 L 411.47097290484 592.2056173175 Z M 535.40697290484 659.4056173175 L 521.10297290484 659.4056173175 L 516.68697290484 644.5256173175 C 515.79097290484 641.4536173175 514.89497290484 639.0696173175 513.99897290484 637.3736173175 C 513.10297290484 635.6776173175 511.88697290484 634.3816173175 510.35097290484 633.4856173175 C 508.81497290484 632.5896173175 506.76697290484 632.1416173175 504.20697290484 632.1416173175 L 494.51097290484 632.1416173175 L 494.51097290484 659.4056173175 L 480.97497290484 659.4056173175 L 480.97497290484 592.2056173175 L 508.14297290484 592.2056173175 C 516.33497290484 592.2056173175 522.38297290484 593.8216173175 526.28697290484 597.0536173175 C 530.19097290484 600.2856173175 532.14297290484 605.3256173175 532.14297290484 612.1736173175 C 532.14297290484 616.5896173175 530.97497290484 620.1416173175 528.63897290484 622.8296173175 C 526.30297290484 625.5176173175 523.08697290484 627.2456173175 518.99097290484 628.0136173175 C 522.25497290484 629.1016173175 524.71897290484 630.9896173175 526.38297290484 633.6776173175 C 528.04697290484 636.3656173175 529.58297290484 640.0136173175 530.99097290484 644.6216173175 L 535.40697290484 659.4056173175 Z M 515.77497290484 619.2296173175 C 517.66297290484 617.6616173175 518.60697290484 615.3096173175 518.60697290484 612.1736173175 C 518.60697290484 609.0376173175 517.66297290484 606.6856173175 515.77497290484 605.1176173175 C 513.88697290484 603.5496173175 511.47097290484 602.7656173175 508.52697290484 602.7656173175 L 494.51097290484 602.7656173175 L 494.51097290484 621.5816173175 L 508.52697290484 621.5816173175 C 511.47097290484 621.5816173175 513.88697290484 620.7976173175 515.77497290484 619.2296173175 Z M 546.44697290484 592.2056173175 L 559.98297290484 592.2056173175 L 559.98297290484 659.4056173175 L 546.44697290484 659.4056173175 L 546.44697290484 592.2056173175 Z M 576.30297290484 592.2056173175 L 601.26297290484 592.2056173175 C 608.81497290484 592.2056173175 614.78297290484 593.2936173175 619.16697290484 595.4696173175 C 623.55097290484 597.6456173175 626.71897290484 601.1496173175 628.67097290484 605.9816173175 C 630.62297290484 610.8136173175 631.59897290484 617.4216173175 631.59897290484 625.8056173175 C 631.59897290484 634.1896173175 630.62297290484 640.7976173175 628.67097290484 645.6296173175 C 626.71897290484 650.4616173175 623.55097290484 653.9656173175 619.16697290484 656.1416173175 C 614.78297290484 658.3176173175 608.81497290484 659.4056173175 601.26297290484 659.4056173175 L 576.30297290484 659.4056173175 L 576.30297290484 592.2056173175 Z M 601.26297290484 648.8456173175 C 605.48697290484 648.8456173175 608.81497290484 648.1096173175 611.24697290484 646.6376173175 C 613.67897290484 645.1656173175 615.42297290484 642.7656173175 616.47897290484 639.4376173175 C 617.53497290484 636.1096173175 618.06297290484 631.5656173175 618.06297290484 625.8056173175 C 618.06297290484 620.0456173175 617.53497290484 615.5016173175 616.47897290484 612.1736173175 C 615.42297290484 608.8456173175 613.67897290484 606.4456173175 611.24697290484 604.9736173175 C 608.81497290484 603.5016173175 605.48697290484 602.7656173175 601.26297290484 602.7656173175 L 589.83897290484 602.7656173175 L 589.83897290484 648.8456173175 L 601.26297290484 648.8456173175 Z M 647.05497290484 654.0296173175 C 643.34297290484 650.4456173175 641.48697290484 645.2616173175 641.48697290484 638.4776173175 L 641.48697290484 613.1336173175 C 641.48697290484 606.3496173175 643.34297290484 601.1656173175 647.05497290484 597.5816173175 C 650.76697290484 593.9976173175 656.87897290484 592.2056173175 665.39097290484 592.2056173175 L 687.85497290484 592.2056173175 L 687.85497290484 602.7656173175 L 665.39097290484 602.7656173175 C 661.87097290484 602.7656173175 659.26297290484 603.5976173175 657.56697290484 605.2616173175 C 655.87097290484 606.9256173175 655.02297290484 609.5496173175 655.02297290484 613.1336173175 L 655.02297290484 620.5256173175 L 683.63097290484 620.5256173175 L 683.63097290484 631.0856173175 L 655.02297290484 631.0856173175 L 655.02297290484 638.4776173175 C 655.02297290484 641.9976173175 655.87097290484 644.6056173175 657.56697290484 646.3016173175 C 659.26297290484 647.9976173175 661.87097290484 648.8456173175 665.39097290484 648.8456173175 L 688.04697290484 648.8456173175 L 688.04697290484 659.4056173175 L 665.39097290484 659.4056173175 C 656.87897290484 659.4056173175 650.76697290484 657.6136173175 647.05497290484 654.0296173175 Z M 753.99897290484 659.4056173175 L 739.69497290484 659.4056173175 L 735.27897290484 644.5256173175 C 734.38297290484 641.4536173175 733.48697290484 639.0696173175 732.59097290484 637.3736173175 C 731.69497290484 635.6776173175 730.47897290484 634.3816173175 728.94297290484 633.4856173175 C 727.40697290484 632.5896173175 725.35897290484 632.1416173175 722.79897290484 632.1416173175 L 713.10297290484 632.1416173175 L 713.10297290484 659.4056173175 L 699.56697290484 659.4056173175 L 699.56697290484 592.2056173175 L 726.73497290484 592.2056173175 C 734.92697290484 592.2056173175 740.97497290484 593.8216173175 744.87897290484 597.0536173175 C 748.78297290484 600.2856173175 750.73497290484 605.3256173175 750.73497290484 612.1736173175 C 750.73497290484 616.5896173175 749.56697290484 620.1416173175 747.23097290484 622.8296173175 C 744.89497290484 625.5176173175 741.67897290484 627.2456173175 737.58297290484 628.0136173175 C 740.84697290484 629.1016173175 743.31097290484 630.9896173175 744.97497290484 633.6776173175 C 746.63897290484 636.3656173175 748.17497290484 640.0136173175 749.58297290484 644.6216173175 L 753.99897290484 659.4056173175 Z M 734.36697290484 619.2296173175 C 736.25497290484 617.6616173175 737.19897290484 615.3096173175 737.19897290484 612.1736173175 C 737.19897290484 609.0376173175 736.25497290484 606.6856173175 734.36697290484 605.1176173175 C 732.47897290484 603.5496173175 730.06297290484 602.7656173175 727.11897290484 602.7656173175 L 713.10297290484 602.7656173175 L 713.10297290484 621.5816173175 L 727.11897290484 621.5816173175 C 730.06297290484 621.5816173175 732.47897290484 620.7976173175 734.36697290484 619.2296173175 Z"/><path id="text" fill="#ffffff" transform="matrix(0.34501739220868377 0 0 0.34501739220868377 330.64188803094873 102.64097331835828)" d="M 352.73394580968 1251.611234635 L 361.85394580968 1251.611234635 L 361.85394580968 1318.811234635 L 352.73394580968 1318.811234635 L 352.73394580968 1251.611234635 Z M 456.31794580968 1251.611234635 L 456.31794580968 1306.907234635 C 456.31794580968 1310.875234635 455.50194580968 1313.851234635 453.86994580968 1315.835234635 C 452.23794580968 1317.819234635 449.66194580968 1318.811234635 446.14194580968 1318.811234635 L 439.70994580968 1318.811234635 L 412.06194580968 1265.627234635 L 412.06194580968 1318.811234635 L 403.42194580968 1318.811234635 L 403.42194580968 1251.611234635 L 413.98194580968 1251.611234635 L 444.41394580968 1310.939234635 L 444.98994580968 1310.939234635 C 446.01394580968 1310.939234635 446.71794580968 1310.555234635 447.10194580968 1309.787234635 C 447.48594580968 1309.019234635 447.67794580968 1307.611234635 447.67794580968 1305.563234635 L 447.67794580968 1251.611234635 L 456.31794580968 1251.611234635 Z M 583.51794580968 1299.227234635 L 554.52594580968 1299.227234635 L 548.57394580968 1318.811234635 L 539.45394580968 1318.811234635 L 556.44594580968 1263.515234635 C 557.46994580968 1260.187234635 558.52594580968 1257.595234635 559.61394580968 1255.739234635 C 560.70194580968 1253.883234635 561.98194580968 1252.555234635 563.45394580968 1251.755234635 C 564.92594580968 1250.955234635 566.74994580968 1250.555234635 568.92594580968 1250.555234635 C 572.12594580968 1250.555234635 574.65394580968 1251.499234635 576.50994580968 1253.387234635 C 578.36594580968 1255.275234635 580.02994580968 1258.651234635 581.50194580968 1263.515234635 L 598.58994580968 1318.811234635 L 589.37394580968 1318.811234635 L 583.51794580968 1299.227234635 Z M 581.40594580968 1292.219234635 L 572.76594580968 1263.611234635 C 572.25394580968 1261.883234635 571.70994580968 1260.683234635 571.13394580968 1260.011234635 C 570.55794580968 1259.339234635 569.82194580968 1259.003234635 568.92594580968 1259.003234635 C 568.09394580968 1259.003234635 567.40594580968 1259.339234635 566.86194580968 1260.011234635 C 566.31794580968 1260.683234635 565.78994580968 1261.883234635 565.27794580968 1263.611234635 L 556.63794580968 1292.219234635 L 581.40594580968 1292.219234635 Z M 680.38194580968 1271.963234635 C 680.38194580968 1265.179234635 682.20594580968 1260.091234635 685.85394580968 1256.699234635 C 689.50194580968 1253.307234635 695.22994580968 1251.611234635 703.03794580968 1251.611234635 L 725.98194580968 1251.611234635 L 725.98194580968 1258.811234635 L 703.03794580968 1258.811234635 C 698.36594580968 1258.811234635 694.94194580968 1259.883234635 692.76594580968 1262.027234635 C 690.58994580968 1264.171234635 689.50194580968 1267.483234635 689.50194580968 1271.963234635 L 689.50194580968 1283.483234635 L 721.27794580968 1283.483234635 L 721.27794580968 1290.779234635 L 689.50194580968 1290.779234635 L 689.50194580968 1318.811234635 L 680.38194580968 1318.811234635 L 680.38194580968 1271.963234635 Z M 765.67794580968 1313.723234635 C 762.12594580968 1310.331234635 760.34994580968 1305.243234635 760.34994580968 1298.459234635 L 760.34994580968 1251.611234635 L 769.46994580968 1251.611234635 L 769.46994580968 1298.459234635 C 769.46994580968 1302.939234635 770.52594580968 1306.251234635 772.63794580968 1308.395234635 C 774.74994580968 1310.539234635 778.01394580968 1311.611234635 782.42994580968 1311.611234635 L 804.02994580968 1311.611234635 L 804.02994580968 1318.811234635 L 782.42994580968 1318.811234635 C 774.81394580968 1318.811234635 769.22994580968 1317.115234635 765.67794580968 1313.723234635 Z M 877.66194580968 1299.227234635 L 848.66994580968 1299.227234635 L 842.71794580968 1318.811234635 L 833.59794580968 1318.811234635 L 850.58994580968 1263.515234635 C 851.61394580968 1260.187234635 852.66994580968 1257.595234635 853.75794580968 1255.739234635 C 854.84594580968 1253.883234635 856.12594580968 1252.555234635 857.59794580968 1251.755234635 C 859.06994580968 1250.955234635 860.89394580968 1250.555234635 863.06994580968 1250.555234635 C 866.26994580968 1250.555234635 868.79794580968 1251.499234635 870.65394580968 1253.387234635 C 872.50994580968 1255.275234635 874.17394580968 1258.651234635 875.64594580968 1263.515234635 L 892.73394580968 1318.811234635 L 883.51794580968 1318.811234635 L 877.66194580968 1299.227234635 Z M 875.54994580968 1292.219234635 L 866.90994580968 1263.611234635 C 866.39794580968 1261.883234635 865.85394580968 1260.683234635 865.27794580968 1260.011234635 C 864.70194580968 1259.339234635 863.96594580968 1259.003234635 863.06994580968 1259.003234635 C 862.23794580968 1259.003234635 861.54994580968 1259.339234635 861.00594580968 1260.011234635 C 860.46194580968 1260.683234635 859.93394580968 1261.883234635 859.42194580968 1263.611234635 L 850.78194580968 1292.219234635 L 875.54994580968 1292.219234635 Z M 929.93394580968 1317.083234635 C 926.18994580968 1315.227234635 922.68594580968 1312.155234635 919.42194580968 1307.867234635 L 925.56594580968 1302.587234635 C 928.25394580968 1306.299234635 931.00594580968 1308.907234635 933.82194580968 1310.411234635 C 936.63794580968 1311.915234635 940.18994580968 1312.667234635 944.47794580968 1312.667234635 C 950.17394580968 1312.667234635 954.50994580968 1311.659234635 957.48594580968 1309.643234635 C 960.46194580968 1307.627234635 961.94994580968 1304.667234635 961.94994580968 1300.763234635 C 961.94994580968 1298.523234635 961.35794580968 1296.699234635 960.17394580968 1295.291234635 C 958.98994580968 1293.883234635 956.92594580968 1292.651234635 953.98194580968 1291.595234635 C 951.03794580968 1290.539234635 946.68594580968 1289.435234635 940.92594580968 1288.283234635 C 934.46194580968 1287.003234635 929.69394580968 1284.827234635 926.62194580968 1281.755234635 C 923.54994580968 1278.683234635 922.01394580968 1274.619234635 922.01394580968 1269.563234635 C 922.01394580968 1263.675234635 924.14194580968 1259.035234635 928.39794580968 1255.643234635 C 932.65394580968 1252.251234635 938.49394580968 1250.555234635 945.91794580968 1250.555234635 C 956.86194580968 1250.555234635 964.60594580968 1254.171234635 969.14994580968 1261.403234635 L 963.00594580968 1266.395234635 C 960.76594580968 1263.515234635 958.28594580968 1261.355234635 955.56594580968 1259.915234635 C 952.84594580968 1258.475234635 949.59794580968 1257.755234635 945.82194580968 1257.755234635 C 941.21394580968 1257.755234635 937.61394580968 1258.795234635 935.02194580968 1260.875234635 C 932.42994580968 1262.955234635 931.13394580968 1265.787234635 931.13394580968 1269.371234635 C 931.13394580968 1272.571234635 932.41394580968 1275.083234635 934.97394580968 1276.907234635 C 937.53394580968 1278.731234635 941.40594580968 1280.155234635 946.58994580968 1281.179234635 C 952.54194580968 1282.395234635 957.24594580968 1283.739234635 960.70194580968 1285.211234635 C 964.15794580968 1286.683234635 966.74994580968 1288.635234635 968.47794580968 1291.067234635 C 970.20594580968 1293.499234635 971.06994580968 1296.699234635 971.06994580968 1300.667234635 C 971.06994580968 1307.003234635 968.84594580968 1311.787234635 964.39794580968 1315.019234635 C 959.94994580968 1318.251234635 953.40594580968 1319.867234635 944.76594580968 1319.867234635 C 938.62194580968 1319.867234635 933.67794580968 1318.939234635 929.93394580968 1317.083234635 Z M 1008.02994580968 1251.611234635 L 1017.14994580968 1251.611234635 L 1017.14994580968 1281.467234635 L 1050.55794580968 1281.467234635 L 1050.55794580968 1251.611234635 L 1059.67794580968 1251.611234635 L 1059.67794580968 1318.811234635 L 1050.55794580968 1318.811234635 L 1050.55794580968 1288.763234635 L 1017.14994580968 1288.763234635 L 1017.14994580968 1318.811234635 L 1008.02994580968 1318.811234635 L 1008.02994580968 1251.611234635 Z"/></svg>